<svg xmlns="http://www.w3.org/2000/svg"
     viewBox="0 0 64 64"
     role="img"
     aria-labelledby="faviconTitle">
  <title id="faviconTitle">Glove Protection Favicon</title>

  <!-- Shield -->
  <path
    d="M32 4
       C25 8 17 11 8 13
       V29
       C8 44 17 55 32 61
       C47 55 56 44 56 29
       V13
       C47 11 39 8 32 4Z"
    fill="#0B3768"/>

  <!-- Orange shield accent -->
  <path
    d="M32 4
       C39 8 47 11 56 13
       V29
       C56 44 47 55 32 61
       L32 55
       C44 50 50 41 50 29
       V17
       C43 15 37 12 32 9Z"
    fill="#FF6A00"/>

  <!-- Simplified natural glove -->
  <path
    d="M25.2 44.6
       C23.8 43 23 40.9 22.8 38.6
       L22.1 31.4
       C21.9 29.5 22.9 28.2 24.5 28
       C26.1 27.8 27.3 29 27.5 30.8
       L27.8 33.3

       L27.7 21.5
       C27.7 19.6 28.8 18.4 30.4 18.4
       C32 18.4 33.1 19.6 33.1 21.5
       V31.8

       L33.4 18.4
       C33.4 16.5 34.5 15.3 36.1 15.3
       C37.7 15.3 38.8 16.5 38.8 18.4
       L38.5 32

       L39.1 20.3
       C39.2 18.4 40.3 17.3 41.9 17.4
       C43.5 17.5 44.5 18.7 44.4 20.6
       L43.8 33.2

       L44.4 23.9
       C44.5 22.1 45.6 21 47.2 21.1
       C48.8 21.2 49.8 22.4 49.7 24.2
       L49 36.6

       C48.6 41.7 46.3 45.4 42.3 47.7
       L41.4 51.8
       H27.7
       L26.8 48
       C26.3 46.8 25.8 45.7 25.2 44.6Z"
    fill="#FFFFFF"/>

  <!-- Thumb contour -->
  <path
    d="M27.7 33.1
       C29.6 34.5 30.9 36.4 31.4 38.7"
    fill="none"
    stroke="#0B3768"
    stroke-width="1.9"
    stroke-linecap="round"/>

  <!-- Cuff -->
  <path
    d="M27.2 47.7
       C31.7 48.7 37.1 48.7 41.8 47.7"
    fill="none"
    stroke="#0B3768"
    stroke-width="1.8"
    stroke-linecap="round"/>
</svg>
